<svg width="16" height="16" viewBox="0 0 16 16" fill="none" xmlns="http://www.w3.org/2000/svg">
<path fill-rule="evenodd" clip-rule="evenodd" d="M1.85455 0.318191C1.4303 -0.106064 0.742445 -0.106064 0.31819 0.318191C-0.106064 0.742446 -0.106063 1.4303 0.318192 1.85455L6.4637 8.00006L0.318208 14.1455C-0.106047 14.5698 -0.106047 15.2577 0.318207 15.6819C0.742462 16.1062 1.43032 16.1062 1.85457 15.6819L8.00006 9.53642L14.1454 15.6818C14.5697 16.1061 15.2576 16.1061 15.6818 15.6818C16.1061 15.2576 16.1061 14.5697 15.6818 14.1454L9.53642 8.00006L15.6818 1.85465C16.1061 1.4304 16.1061 0.742547 15.6818 0.318292C15.2576 -0.105963 14.5697 -0.105962 14.1455 0.318293L8.00006 6.4637L1.85455 0.318191Z" fill="#0E3150"/>
</svg>
