<svg width="10" height="10" viewBox="0 0 10 10" fill="none" xmlns="http://www.w3.org/2000/svg">
<path fill-rule="evenodd" clip-rule="evenodd" d="M9.57839 0.421436C9.01648 -0.140479 8.10543 -0.140479 7.54352 0.421436L4.99975 2.96521L2.45631 0.421769C1.8944 -0.140147 0.983352 -0.140146 0.421436 0.421769C-0.140479 0.983684 -0.140479 1.89473 0.421436 2.45664L2.96487 5.00008L0.421455 7.5435C-0.14046 8.10541 -0.14046 9.01646 0.421455 9.57837C0.98337 10.1403 1.89441 10.1403 2.45633 9.57837L4.99975 7.03496L7.5435 9.57871C8.10541 10.1406 9.01646 10.1406 9.57837 9.57871C10.1403 9.01679 10.1403 8.10575 9.57837 7.54383L7.03462 5.00008L9.57839 2.45631C10.1403 1.8944 10.1403 0.983352 9.57839 0.421436Z" fill="#FF4E99"/>
</svg>
